{"title":"Shuddh Desi Romance 2013 Hindi 720p DVDRip x264 6Ch AC3 ESubs-So","uid":9069580,"size":1582575181,"categoryP":"video","categoryS":"hd___movies","magnet":"?xt=urn:btih:ef53ee3aa6c8de971f3b28bd36aee58d4f3910be&amp;dn=Shuddh+Desi+Romance+2013+Hindi+720p+DVDRip+x264+6Ch+AC3+ESubs-So&amp;tr=udp%3A%2F%2Ftracker.openbittorrent.com%3A80&amp;tr=udp%3A%2F%2Fopen.demonii.com%3A1337&amp;tr=udp%3A%2F%2Ftracker.coppersurfer.tk%3A6969&amp;tr=udp%3A%2F%2Fexodus.desync.com%3A6969","seeders":3,"leechers":1,"uploader":"HeroMaster","files":-1,"time":1382176641,"description":"Shuddh Desi Romance 2013 Hindi 720p DVDRip x264 6Ch AC3 ESubs-Sony0014\n\n\nIMDB: http://www.imdb.com/title/tt2988272/\n\n\nFormat                                   : Matroska\nFormat version                           : Version 4 / Version 2\nFile size                                : 1.46 GiB\nDuration                                 : 2h 6mn\nOverall bit rate                         : 1 649 Kbps\nMovie name                               : Shudh Desi Romance(2013).720p.DVDRip-x264.6Ch-AC3.[E-SUB]-By Sony0014\n\nVideo\nCode:\nFormat                                   : AVC\nFormat/Info                              : Advanced Video Codec\nFormat profile                           : &lt;a class=&quot;__cf_email__&quot; href=&quot;/cdn-cgi/l/email-protection&quot; data-cfemail=&quot;d890b1bfb09894ebf6e9&quot;&gt;[email&amp;#160;protected]&lt;/a&gt;&lt;script cf-hash='f9e31' type=&quot;text/javascript&quot;&gt;\n/* &lt;![CDATA[ */!function(){try{var t=&quot;currentScript&quot;in document?document.currentScript:function(){for(var t=document.getElementsByTagName(&quot;script&quot;),e=t.length;e--;)if(t[e].getAttribute(&quot;cf-hash&quot;))return t[e]}();if(t&amp;&amp;t.previousSibling){var e,r,n,i,c=t.previousSibling,a=c.getAttribute(&quot;data-cfemail&quot;);if(a){for(e=&quot;&quot;,r=parseInt(a.substr(0,2),16),n=2;a.length-n;n+=2)i=parseInt(a.substr(n,2),16)^r,e+=String.fromCharCode(i);e=document.createTextNode(e),c.parentNode.replaceChild(e,c)}}}catch(u){}}();/* ]]&gt; */&lt;/script&gt;\nFormat settings, CABAC                   : Yes\nFormat settings, ReFrames                : 5 frames\nCodec ID                                 : V_MPEG4/ISO/AVC\nDuration                                 : 2h 6mn\nBit rate                                 : 1 200 Kbps\nWidth                                    : 1 280 pixels\nHeight                                   : 544 pixels\nDisplay aspect ratio                     : 2.35:1\nFrame rate mode                          : Constant\nFrame rate                               : 29.970 fps\nColor space                              : YUV\nChroma subsampling                       : 4:2:0\nBit depth                                : 8 bits\nScan type                                : Progressive\nBits/(Pixel*Frame)                       : 0.058\nStream size                              : 1.04 GiB (71%)\nTitle                                    : K@rtik\nWriting library                          : x264 core 133 r2334 a3ac64b\n\nAudio\nCode:\nFormat                                   : AC-3\nFormat/Info                              : Audio Coding 3\nMode extension                           : CM (complete main)\nFormat settings, Endianness              : Big\nCodec ID                                 : A_AC3\nDuration                                 : 2h 6mn\nBit rate mode                            : Constant\nBit rate                                 : 448 Kbps\nChannel(s)                               : 6 channels\nChannel positions                        : Front: L C R, Side: L R, LFE\nSampling rate                            : 48.0 KHz\nBit depth                                : 16 bits\nCompression mode                         : Lossy\nDelay relative to video                  : 300ms\nStream size                              : 407 MiB (27%)\nTitle                                    : K@rtik\nLanguage                                 : Hindi\nDefault                                  : Yes\n\n\nGreetz and Respect:\n\n\nALL CREDITS Goes to Sony0014 for Encoding and Mafiaking for distribution.\n\n\nPoster:\n\n &lt;a href=&quot;\nhttp://i.imgur.com/5s4prGC.jpg&quot; rel=&quot;nofollow&quot; target=&quot;_NEW&quot;&gt;\nhttp://i.imgur.com/5s4prGC.jpg&lt;/a&gt;\n\n\nScreenshots:\n\n &lt;a href=&quot;\nhttp://i.imgur.com/tklS9eO.jpg&quot; rel=&quot;nofollow&quot; target=&quot;_NEW&quot;&gt;\nhttp://i.imgur.com/tklS9eO.jpg&lt;/a&gt;\n\n &lt;a href=&quot;\nhttp://i.imgur.com/P3gUX0M.png&quot; rel=&quot;nofollow&quot; target=&quot;_NEW&quot;&gt;\nhttp://i.imgur.com/P3gUX0M.png&lt;/a&gt;\n\n &lt;a href=&quot;\nhttp://i.imgur.com/ftOd8XX.png&quot; rel=&quot;nofollow&quot; target=&quot;_NEW&quot;&gt;\nhttp://i.imgur.com/ftOd8XX.png&lt;/a&gt;\n\n\nSEED AND ENJOY!","torrent":{"xt":"urn:btih:ef53ee3aa6c8de971f3b28bd36aee58d4f3910be","amp;dn":"Shuddh+Desi+Romance+2013+Hindi+720p+DVDRip+x264+6Ch+AC3+ESubs-So","amp;tr":["udp%3A%2F%2Ftracker.openbittorrent.com%3A80","udp%3A%2F%2Fopen.demonii.com%3A1337","udp%3A%2F%2Ftracker.coppersurfer.tk%3A6969","udp%3A%2F%2Fexodus.desync.com%3A6969"],"infoHash":"ef53ee3aa6c8de971f3b28bd36aee58d4f3910be","infoHashBuffer":{"type":"Buffer","data":[239,83,238,58,166,200,222,151,31,59,40,189,54,174,229,141,79,57,16,190]},"announce":[],"urlList":[]}}